<?xml version="1.0" standalone="no"?>
<!DOCTYPE svg PUBLIC "-//W3C//DTD SVG 20010904//EN"
 "http://www.w3.org/TR/2001/REC-SVG-20010904/DTD/svg10.dtd">
<svg version="1.0" xmlns="http://www.w3.org/2000/svg"
 width="260.000000pt" height="260.000000pt" viewBox="0 0 260.000000 260.000000"
 preserveAspectRatio="xMidYMid meet">
<metadata>
Created by potrace 1.11, written by Peter Selinger 2001-2013
</metadata>
<g transform="translate(0.000000,260.000000) scale(0.100000,-0.100000)"
fill="#000000" stroke="none">
<path d="M0 1300 l0 -1300 1300 0 1300 0 0 1300 0 1300 -1300 0 -1300 0 0
-1300z m2340 543 l0 -516 -128 124 c-113 110 -189 180 -326 300 -62 53 -224
181 -286 224 -223 157 -311 211 -498 306 -74 38 -137 71 -140 74 -3 3 306 5
686 5 l692 0 0 -517z m-1395 283 c216 -32 515 -177 800 -385 71 -52 261 -205
292 -235 11 -12 85 -81 162 -155 l141 -133 0 -89 0 -88 -137 137 c-210 209
-389 358 -594 495 -91 60 -296 170 -363 194 -91 32 -235 63 -294 63 -155 0
-275 -74 -317 -195 -24 -68 -24 -207 -1 -310 21 -92 89 -262 140 -354 20 -35
36 -65 36 -68 0 -7 183 -279 221 -328 72 -94 133 -165 268 -313 l93 -102 -85
0 -85 0 -85 93 c-481 522 -772 1074 -742 1407 20 228 180 372 420 379 22 0 81
-5 130 -13z m365 -421 c36 -8 74 -20 85 -25 11 -5 44 -19 74 -30 134 -52 365
-202 505 -329 65 -59 255 -252 312 -317 l54 -61 0 -342 0 -342 -152 3 -151 3
-20 60 c-11 33 -34 110 -53 170 -18 61 -42 137 -53 170 -31 96 -108 345 -126
408 -9 32 -20 56 -23 53 -3 -4 -23 -73 -44 -154 -41 -153 -91 -341 -154 -574
-36 -134 -38 -138 -64 -138 -20 0 -44 18 -97 73 -39 39 -86 90 -104 112 -19
22 -39 45 -45 50 -22 20 -172 223 -217 293 -76 117 -153 275 -189 385 -30 93
-33 113 -33 222 0 118 1 121 33 178 62 106 145 146 302 147 52 0 124 -7 160
-15z m-1019 -235 c33 -78 63 -135 161 -310 87 -154 229 -368 330 -497 18 -23
46 -59 63 -80 66 -85 151 -189 161 -198 7 -5 33 -36 58 -67 l46 -58 -435 0
-435 0 0 652 c0 408 4 648 9 643 6 -6 24 -44 42 -85z"/>
</g>
</svg>
